<svg xmlns="http://www.w3.org/2000/svg" viewBox="0 0 1200 1500" preserveAspectRatio="xMidYMid slice"><defs><linearGradient id="g" x1="0" y1="0" x2="0" y2="1"><stop offset="0" stop-color="#2b2423"/><stop offset="1" stop-color="#b9877f" stop-opacity=".55"/></linearGradient><radialGradient id="l" cx=".5" cy=".55" r=".6"><stop offset="0" stop-color="#ecd9c4" stop-opacity=".55"/><stop offset="1" stop-color="#ecd9c4" stop-opacity="0"/></radialGradient></defs><rect width="1200" height="1500" fill="url(#g)"/><rect width="1200" height="1500" fill="url(#l)"/><rect y="1170.0" width="1200" height="330.0" fill="#000" opacity=".25"/><path d="M276.0 1170.0 V846.0 A324.0 324.0 0 0 1 924.0 846.0 V1170.0" fill="none" stroke="#ecd9c4" stroke-width="10" opacity=".7"/><circle cx="737" cy="569" r="25" fill="#f8f5ef" opacity="0.46"/><circle cx="256" cy="876" r="15" fill="#f8f5ef" opacity="0.50"/><circle cx="366" cy="601" r="27" fill="#ecd9c4" opacity="0.52"/><circle cx="867" cy="634" r="10" fill="#b9877f" opacity="0.54"/><circle cx="300" cy="1078" r="24" fill="#b9877f" opacity="0.53"/><circle cx="947" cy="808" r="10" fill="#ecd9c4" opacity="0.52"/><circle cx="299" cy="708" r="10" fill="#f8f5ef" opacity="0.77"/><circle cx="273" cy="789" r="14" fill="#ecd9c4" opacity="0.77"/><circle cx="269" cy="857" r="21" fill="#ecd9c4" opacity="0.61"/><circle cx="656" cy="515" r="29" fill="#b9877f" opacity="0.50"/><circle cx="916" cy="1060" r="26" fill="#b9877f" opacity="0.72"/><circle cx="840" cy="637" r="30" fill="#b9877f" opacity="0.60"/><circle cx="935" cy="1059" r="24" fill="#ecd9c4" opacity="0.53"/><circle cx="296" cy="793" r="13" fill="#b9877f" opacity="0.49"/><circle cx="281" cy="1110" r="19" fill="#ecd9c4" opacity="0.52"/><circle cx="939" cy="816" r="14" fill="#f8f5ef" opacity="0.70"/><circle cx="921" cy="1117" r="27" fill="#ecd9c4" opacity="0.51"/><circle cx="897" cy="769" r="29" fill="#f8f5ef" opacity="0.78"/><circle cx="574" cy="504" r="18" fill="#f8f5ef" opacity="0.88"/><circle cx="717" cy="526" r="15" fill="#f8f5ef" opacity="0.84"/><circle cx="478" cy="562" r="23" fill="#ecd9c4" opacity="0.61"/><circle cx="793" cy="601" r="24" fill="#ecd9c4" opacity="0.88"/><circle cx="462" cy="561" r="25" fill="#ecd9c4" opacity="0.75"/><circle cx="931" cy="1070" r="27" fill="#ecd9c4" opacity="0.87"/><circle cx="948" cy="855" r="21" fill="#b9877f" opacity="0.54"/><circle cx="935" cy="958" r="13" fill="#f8f5ef" opacity="0.68"/><circle cx="920" cy="801" r="15" fill="#b9877f" opacity="0.54"/><circle cx="670" cy="547" r="14" fill="#f8f5ef" opacity="0.47"/><circle cx="548" cy="504" r="16" fill="#b9877f" opacity="0.67"/><circle cx="641" cy="534" r="11" fill="#b9877f" opacity="0.56"/><circle cx="904" cy="737" r="18" fill="#b9877f" opacity="0.76"/><circle cx="926" cy="1131" r="22" fill="#ecd9c4" opacity="0.82"/><circle cx="906" cy="1012" r="20" fill="#b9877f" opacity="0.89"/><circle cx="729" cy="515" r="12" fill="#f8f5ef" opacity="0.86"/><circle cx="660" cy="528" r="19" fill="#b9877f" opacity="0.67"/><circle cx="573" cy="541" r="13" fill="#f8f5ef" opacity="0.57"/><circle cx="919" cy="817" r="30" fill="#ecd9c4" opacity="0.87"/><circle cx="317" cy="729" r="15" fill="#b9877f" opacity="0.80"/><circle cx="879" cy="667" r="29" fill="#b9877f" opacity="0.56"/><circle cx="409" cy="594" r="22" fill="#ecd9c4" opacity="0.68"/><circle cx="257" cy="1153" r="24" fill="#f8f5ef" opacity="0.58"/><circle cx="623" cy="536" r="22" fill="#b9877f" opacity="0.45"/><circle cx="634" cy="536" r="14" fill="#ecd9c4" opacity="0.80"/><circle cx="538" cy="537" r="20" fill="#ecd9c4" opacity="0.66"/><circle cx="796" cy="572" r="25" fill="#ecd9c4" opacity="0.83"/><circle cx="775" cy="595" r="28" fill="#b9877f" opacity="0.52"/><circle cx="920" cy="998" r="11" fill="#f8f5ef" opacity="0.55"/><circle cx="882" cy="647" r="24" fill="#b9877f" opacity="0.90"/><circle cx="809" cy="570" r="23" fill="#b9877f" opacity="0.77"/><circle cx="326" cy="695" r="22" fill="#ecd9c4" opacity="0.81"/><circle cx="286" cy="786" r="25" fill="#ecd9c4" opacity="0.48"/><circle cx="696" cy="512" r="19" fill="#ecd9c4" opacity="0.76"/><circle cx="597" cy="544" r="13" fill="#ecd9c4" opacity="0.52"/><circle cx="751" cy="552" r="22" fill="#ecd9c4" opacity="0.48"/><circle cx="905" cy="989" r="17" fill="#f8f5ef" opacity="0.63"/><circle cx="295" cy="720" r="11" fill="#b9877f" opacity="0.68"/><circle cx="551" cy="550" r="12" fill="#f8f5ef" opacity="0.46"/><circle cx="792" cy="623" r="24" fill="#b9877f" opacity="0.79"/><circle cx="905" cy="911" r="17" fill="#b9877f" opacity="0.58"/><circle cx="932" cy="770" r="24" fill="#ecd9c4" opacity="0.74"/><circle cx="883" cy="660" r="22" fill="#f8f5ef" opacity="0.55"/><circle cx="303" cy="656" r="14" fill="#ecd9c4" opacity="0.85"/><circle cx="555" cy="521" r="28" fill="#f8f5ef" opacity="0.86"/><circle cx="413" cy="579" r="11" fill="#ecd9c4" opacity="0.84"/><circle cx="549" cy="540" r="25" fill="#f8f5ef" opacity="0.56"/><circle cx="604" cy="516" r="29" fill="#f8f5ef" opacity="0.46"/><circle cx="285" cy="1121" r="23" fill="#f8f5ef" opacity="0.90"/><circle cx="282" cy="820" r="22" fill="#f8f5ef" opacity="0.61"/><circle cx="408" cy="589" r="24" fill="#b9877f" opacity="0.80"/><circle cx="300" cy="682" r="25" fill="#ecd9c4" opacity="0.45"/><circle cx="277" cy="761" r="21" fill="#f8f5ef" opacity="0.70"/><circle cx="904" cy="801" r="12" fill="#ecd9c4" opacity="0.47"/><circle cx="361" cy="599" r="15" fill="#ecd9c4" opacity="0.65"/><circle cx="276" cy="1107" r="21" fill="#b9877f" opacity="0.87"/><circle cx="882" cy="630" r="12" fill="#f8f5ef" opacity="0.55"/><circle cx="276" cy="832" r="18" fill="#f8f5ef" opacity="0.51"/><circle cx="286" cy="854" r="30" fill="#f8f5ef" opacity="0.50"/><circle cx="433" cy="594" r="16" fill="#b9877f" opacity="0.69"/><circle cx="587" cy="548" r="23" fill="#ecd9c4" opacity="0.48"/><circle cx="775" cy="573" r="17" fill="#b9877f" opacity="0.48"/><circle cx="857" cy="605" r="16" fill="#b9877f" opacity="0.71"/><circle cx="286" cy="922" r="26" fill="#ecd9c4" opacity="0.70"/><circle cx="409" cy="572" r="16" fill="#b9877f" opacity="0.48"/><circle cx="814" cy="604" r="13" fill="#ecd9c4" opacity="0.65"/><circle cx="272" cy="1088" r="17" fill="#b9877f" opacity="0.52"/><circle cx="744" cy="532" r="22" fill="#f8f5ef" opacity="0.77"/><circle cx="914" cy="1153" r="19" fill="#ecd9c4" opacity="0.53"/><circle cx="262" cy="796" r="20" fill="#b9877f" opacity="0.50"/><circle cx="847" cy="692" r="11" fill="#f8f5ef" opacity="0.56"/><circle cx="793" cy="571" r="26" fill="#ecd9c4" opacity="0.70"/><circle cx="428" cy="507" r="2.7" fill="#fff3d6" opacity=".8"/><circle cx="422" cy="168" r="4.9" fill="#fff3d6" opacity=".8"/><circle cx="1008" cy="574" r="3.9" fill="#fff3d6" opacity=".8"/><circle cx="481" cy="97" r="4.5" fill="#fff3d6" opacity=".8"/><circle cx="588" cy="25" r="2.5" fill="#fff3d6" opacity=".8"/><circle cx="118" cy="484" r="4.7" fill="#fff3d6" opacity=".8"/><circle cx="239" cy="538" r="3.0" fill="#fff3d6" opacity=".8"/><circle cx="819" cy="583" r="3.9" fill="#fff3d6" opacity=".8"/><circle cx="960" cy="254" r="2.0" fill="#fff3d6" opacity=".8"/><circle cx="614" cy="396" r="2.6" fill="#fff3d6" opacity=".8"/><circle cx="467" cy="214" r="2.1" fill="#fff3d6" opacity=".8"/><circle cx="374" cy="258" r="3.4" fill="#fff3d6" opacity=".8"/><circle cx="844" cy="269" r="4.9" fill="#fff3d6" opacity=".8"/><circle cx="979" cy="624" r="4.1" fill="#fff3d6" opacity=".8"/><circle cx="804" cy="362" r="4.4" fill="#fff3d6" opacity=".8"/><circle cx="435" cy="401" r="4.0" fill="#fff3d6" opacity=".8"/><circle cx="627" cy="192" r="2.2" fill="#fff3d6" opacity=".8"/><circle cx="105" cy="240" r="3.7" fill="#fff3d6" opacity=".8"/><circle cx="912" cy="482" r="2.9" fill="#fff3d6" opacity=".8"/><circle cx="1115" cy="185" r="4.1" fill="#fff3d6" opacity=".8"/><circle cx="86" cy="509" r="4.0" fill="#fff3d6" opacity=".8"/><circle cx="1148" cy="606" r="4.1" fill="#fff3d6" opacity=".8"/><circle cx="1006" cy="499" r="3.8" fill="#fff3d6" opacity=".8"/><circle cx="250" cy="349" r="4.7" fill="#fff3d6" opacity=".8"/><circle cx="287" cy="658" r="3.6" fill="#fff3d6" opacity=".8"/><circle cx="472" cy="2" r="3.2" fill="#fff3d6" opacity=".8"/><circle cx="214" cy="441" r="4.7" fill="#fff3d6" opacity=".8"/><circle cx="1092" cy="414" r="3.2" fill="#fff3d6" opacity=".8"/><circle cx="131" cy="465" r="3.7" fill="#fff3d6" opacity=".8"/><circle cx="858" cy="252" r="4.7" fill="#fff3d6" opacity=".8"/><circle cx="255" cy="206" r="2.8" fill="#fff3d6" opacity=".8"/><circle cx="747" cy="606" r="2.5" fill="#fff3d6" opacity=".8"/><circle cx="759" cy="517" r="2.7" fill="#fff3d6" opacity=".8"/><circle cx="75" cy="382" r="4.5" fill="#fff3d6" opacity=".8"/></svg>